/* XPM */
static char * menuButton_xpm[] = {
"16 16 47 1",
" 	c None",
".	c #222222",
"+	c #000000",
"@	c #D2D2D2",
"#	c #CCCCCC",
"$	c #C5C5C5",
"%	c #BFBFBF",
"&	c #B8B8B8",
"*	c #B2B2B2",
"=	c #ABABAB",
"-	c #A5A5A5",
";	c #9F9F9F",
">	c #989898",
",	c #929292",
"'	c #8B8B8B",
")	c #858585",
"!	c #7E7E7E",
"~	c #787878",
"{	c #0C0C0C",
"]	c #151515",
"^	c #1E1E1E",
"/	c #262626",
"(	c #2F2F2F",
"_	c #383838",
":	c #414141",
"<	c #494949",
"[	c #525252",
"}	c #5B5B5B",
"|	c #727272",
"1	c #646464",
"2	c #6B6B6B",
"3	c #ACCADC",
"4	c #6C6C6C",
"5	c #656565",
"6	c #757575",
"7	c #5E5E5E",
"8	c #585858",
"9	c #878787",
"0	c #515151",
"a	c #8F8F8F",
"b	c #4B4B4B",
"c	c #454545",
"d	c #A1A1A1",
"e	c #3E3E3E",
"f	c #AAAAAA",
"g	c #313131",
"h	c #2B2B2B",
".++++++++++++++.",
"+@#$%&*=-;>,')!+",
"+#$%&*=-;>,')!~+",
"+$%{]^/(_:<[}~|+",
"+%&]^/(_:<[}1|2+",
"+&*^/(_33[}1425+",
"+*=/(_333314657+",
"+=-(_33[}336!78+",
"+-;_:33}133!980+",
"+;>:<[3333!9a0b+",
"+>,<[}133!9a>bc+",
"+,'[}146!9a>dce+",
"+')}146!9a>dfe_+",
"+)!~|25780bce_g+",
"+!~|25780bce_gh+",
".++++++++++++++."};
