/* XPM */
static char * rolldown_xpm[] = {
"16 16 76 1",
" 	c None",
".	c #222222",
"+	c #000000",
"@	c #D2D2D2",
"#	c #CCCCCC",
"$	c #C5C5C5",
"%	c #BFBFBF",
"&	c #B8B8B8",
"*	c #B2B2B2",
"=	c #ABABAB",
"-	c #A5A5A5",
";	c #9F9F9F",
">	c #989898",
",	c #929292",
"'	c #8B8B8B",
")	c #858585",
"!	c #7E7E7E",
"~	c #787878",
"{	c #0C0C0C",
"]	c #151515",
"^	c #1E1E1E",
"/	c #262626",
"(	c #2F2F2F",
"_	c #383838",
":	c #414141",
"<	c #494949",
"[	c #525252",
"}	c #5B5B5B",
"|	c #727272",
"1	c #1D1D1D",
"2	c #272727",
"3	c #303030",
"4	c #3F3F3F",
"5	c #484848",
"6	c #646464",
"7	c #6B6B6B",
"8	c #313131",
"9	c #ACCADC",
"0	c #545454",
"a	c #616161",
"b	c #6C6C6C",
"c	c #656565",
"d	c #2D2D2D",
"e	c #3C3C3C",
"f	c #454545",
"g	c #565656",
"h	c #636363",
"i	c #737373",
"j	c #5E5E5E",
"k	c #393939",
"l	c #444444",
"m	c #4D4D4D",
"n	c #424242",
"o	c #4F4F4F",
"p	c #5D5D5D",
"q	c #696969",
"r	c #7A7A7A",
"s	c #585858",
"t	c #848484",
"u	c #515151",
"v	c #8F8F8F",
"w	c #4B4B4B",
"x	c #535353",
"y	c #767676",
"z	c #828282",
"A	c #8C8C8C",
"B	c #8E8E8E",
"C	c #909090",
"D	c #747474",
"E	c #8D8D8D",
"F	c #A1A1A1",
"G	c #3E3E3E",
"H	c #7D7D7D",
"I	c #878787",
"J	c #AAAAAA",
"K	c #2B2B2B",
".++++++++++++++.",
"+@#$%&*=-;>,')!+",
"+#$%&*=-;>,')!~+",
"+$%{]^/(_:<[}~|+",
"+%&]1234:5[}6|7+",
"+&*12899990ab7c+",
"+*=8de:99fghicj+",
"+=-<klmnlopqrjs+",
"+-;:99999999tsu+",
"+;>n99999999vuw+",
"+>,<x}cyzABC>wf+",
"+,'[}aqD)E,>FfG+",
"+')}67iHIC>FJG_+",
"+)!~|7cjsuwfG_8+",
"+!~|7cjsuwfG_8K+",
".++++++++++++++."};
