/* XPM */
static char * closefcs_xpm[] = {
"18 18 4 1",
" 	c None",
".	c #333333",
"+	c #323232",
"@	c #CCCCCC",
"..................",
"..................",
"..................",
"..................",
"..................",
"...........+......",
"......@...@.......",
".......@.@........",
"........@.........",
".......@.@........",
"......@...@.......",
"..................",
"..................",
"..................",
"..................",
"..................",
"..................",
".................."};
